<svg xmlns="http://www.w3.org/2000/svg" xmlns:xlink="http://www.w3.org/1999/xlink" width="1024" zoomAndPan="magnify" viewBox="0 0 768 767.999994" height="1024" preserveAspectRatio="xMidYMid meet" version="1.0"><defs><clipPath id="193c991298"><path d="M 242.398438 242.398438 L 549.542969 242.398438 L 549.542969 549.542969 L 242.398438 549.542969 Z M 242.398438 242.398438 " clip-rule="nonzero"/></clipPath></defs><g clip-path="url(#193c991298)"><path fill="#b89de6" d="M 305.105469 258.0625 C 293.535156 261.011719 284.433594 265.121094 277.441406 270.148438 C 262.582031 280.851562 256.988281 296.246094 257.457031 313.6875 C 257.964844 332.277344 265.1875 353.289062 275.597656 373.78125 C 292.363281 406.753906 317.191406 437.929688 335.878906 455.839844 L 335.890625 455.820312 C 336.105469 456.023438 336.300781 456.230469 336.476562 456.445312 C 354.429688 475.082031 385.410156 499.699219 418.167969 516.34375 C 438.652344 526.753906 459.664062 533.980469 478.257812 534.488281 C 495.703125 534.957031 511.09375 529.359375 521.792969 514.5 C 526.832031 507.519531 530.941406 498.410156 533.882812 486.839844 C 537.367188 473.179688 518.589844 465.417969 499.25 460.484375 C 489.796875 458.074219 480.648438 456.433594 473.0625 455.066406 C 470.242188 454.558594 467.625 454.089844 465.328125 453.652344 C 445.078125 481.058594 420.191406 471.996094 417.359375 470.84375 C 396.941406 464.78125 375.863281 450.878906 358.464844 433.480469 C 341.0625 416.089844 327.160156 395 321.097656 374.582031 C 319.945312 371.753906 310.882812 346.875 338.292969 326.613281 C 337.851562 324.320312 337.382812 321.703125 336.875 318.890625 C 335.507812 311.292969 333.867188 302.144531 331.457031 292.703125 C 326.535156 273.351562 318.773438 254.574219 305.105469 258.0625 Z M 268.664062 257.953125 C 277.207031 251.792969 287.996094 246.851562 301.394531 243.445312 C 327.179688 236.882812 339.285156 262.347656 346.074219 288.992188 C 348.4375 298.238281 350.203125 308.082031 351.667969 316.234375 C 352.457031 320.675781 353.160156 324.5625 353.921875 327.882812 C 354.832031 331.027344 353.609375 334.523438 350.710938 336.359375 L 346.679688 329.980469 L 350.679688 336.347656 C 328.613281 350.308594 334.160156 366.625 334.972656 368.6875 C 335.128906 369.039062 335.273438 369.398438 335.382812 369.789062 L 335.351562 369.789062 C 340.585938 387.851562 353.199219 406.882812 369.136719 422.816406 C 384.882812 438.566406 403.679688 451.082031 421.558594 456.414062 C 422.066406 456.511719 422.5625 456.667969 423.042969 456.882812 C 423.207031 456.960938 440.519531 464.644531 455.320312 441.679688 C 456.902344 438.761719 460.28125 437.132812 463.667969 437.921875 L 461.960938 445.273438 L 463.667969 437.929688 C 467.085938 438.722656 471.097656 439.445312 475.707031 440.273438 C 483.859375 441.738281 493.703125 443.515625 502.960938 445.871094 C 529.59375 452.65625 555.070312 464.773438 548.496094 490.550781 C 545.089844 503.945312 540.148438 514.734375 534 523.277344 C 519.96875 542.765625 500.167969 550.109375 477.90625 549.511719 C 456.804688 548.9375 433.636719 541.085938 411.382812 529.78125 C 377.023438 512.324219 344.5 486.46875 325.636719 466.882812 C 325.578125 466.832031 325.519531 466.773438 325.453125 466.714844 L 325.460938 466.707031 L 325.355469 466.589844 C 305.738281 447.765625 279.707031 415.085938 262.164062 380.558594 C 250.855469 358.308594 243.003906 335.136719 242.4375 314.039062 C 241.832031 291.785156 249.1875 271.984375 268.664062 257.953125 " fill-opacity="1" fill-rule="nonzero"/></g></svg>