<svg xmlns="http://www.w3.org/2000/svg" xmlns:xlink="http://www.w3.org/1999/xlink" width="1024" zoomAndPan="magnify" viewBox="0 0 768 767.999994" height="1024" preserveAspectRatio="xMidYMid meet" version="1.0"><defs><clipPath id="0935c55bb9"><path d="M 243 234 L 528 234 L 528 537.898438 L 243 537.898438 Z M 243 234 " clip-rule="nonzero"/></clipPath></defs><path fill="#b89de6" d="M 309.074219 313.441406 C 320.976562 313.441406 330.628906 303.789062 330.628906 291.886719 C 330.628906 279.980469 320.976562 270.332031 309.074219 270.332031 C 297.167969 270.332031 287.519531 279.980469 287.519531 291.886719 C 287.519531 303.789062 297.167969 313.441406 309.074219 313.441406 Z M 309.074219 279.976562 C 315.699219 279.976562 321.070312 285.347656 321.070312 291.972656 C 321.070312 298.597656 315.699219 303.96875 309.074219 303.96875 C 302.449219 303.96875 297.078125 298.597656 297.078125 291.972656 C 297.078125 285.347656 302.449219 279.976562 309.074219 279.976562 Z M 309.074219 279.976562 " fill-opacity="1" fill-rule="nonzero"/><path fill="#b89de6" d="M 281.933594 349.519531 C 273.292969 349.519531 266.289062 356.523438 266.289062 365.164062 C 266.289062 373.804688 273.292969 380.808594 281.933594 380.808594 C 290.574219 380.808594 297.578125 373.804688 297.578125 365.164062 C 297.578125 356.523438 290.574219 349.519531 281.933594 349.519531 Z M 281.933594 371.324219 C 278.53125 371.324219 275.769531 368.5625 275.769531 365.160156 C 275.769531 361.757812 278.53125 359 281.933594 359 C 285.335938 359 288.09375 361.757812 288.09375 365.160156 C 288.09375 368.566406 285.335938 371.324219 281.933594 371.324219 Z M 281.933594 371.324219 " fill-opacity="1" fill-rule="nonzero"/><path fill="#b89de6" d="M 386.710938 295.621094 C 395.351562 295.621094 402.355469 288.613281 402.355469 279.976562 C 402.355469 271.335938 395.351562 264.332031 386.710938 264.332031 C 378.074219 264.332031 371.070312 271.335938 371.070312 279.976562 C 371.070312 288.613281 378.074219 295.621094 386.710938 295.621094 Z M 386.710938 273.8125 C 390.117188 273.8125 392.875 276.570312 392.875 279.972656 C 392.875 283.375 390.117188 286.132812 386.710938 286.132812 C 383.308594 286.132812 380.550781 283.375 380.550781 279.972656 C 380.550781 276.570312 383.308594 273.8125 386.710938 273.8125 Z M 386.710938 273.8125 " fill-opacity="1" fill-rule="nonzero"/><path fill="#b89de6" d="M 400.453125 410.691406 C 400.453125 398.789062 390.804688 389.136719 378.898438 389.136719 C 366.996094 389.136719 357.34375 398.789062 357.34375 410.691406 C 357.34375 422.597656 366.996094 432.246094 378.898438 432.246094 C 390.804688 432.246094 400.453125 422.597656 400.453125 410.691406 Z M 366.902344 410.78125 C 366.902344 404.152344 372.273438 398.785156 378.898438 398.785156 C 385.523438 398.785156 390.894531 404.15625 390.894531 410.78125 C 390.894531 417.40625 385.523438 422.777344 378.898438 422.777344 C 372.273438 422.777344 366.902344 417.40625 366.902344 410.78125 Z M 366.902344 410.78125 " fill-opacity="1" fill-rule="nonzero"/><path fill="#b89de6" d="M 392.875 472.417969 C 384.234375 472.417969 377.230469 479.421875 377.230469 488.058594 C 377.230469 496.699219 384.234375 503.703125 392.875 503.703125 C 401.515625 503.703125 408.519531 496.699219 408.519531 488.058594 C 408.519531 479.421875 401.515625 472.417969 392.875 472.417969 Z M 392.875 494.21875 C 389.472656 494.21875 386.710938 491.460938 386.710938 488.058594 C 386.710938 484.65625 389.472656 481.894531 392.875 481.894531 C 396.277344 481.894531 399.035156 484.65625 399.035156 488.058594 C 399.035156 491.460938 396.277344 494.21875 392.875 494.21875 Z M 392.875 494.21875 " fill-opacity="1" fill-rule="nonzero"/><path fill="#b89de6" d="M 439.324219 376.742188 C 447.964844 376.742188 454.96875 369.738281 454.96875 361.097656 C 454.96875 352.457031 447.964844 345.453125 439.324219 345.453125 C 430.6875 345.453125 423.683594 352.457031 423.683594 361.097656 C 423.683594 369.738281 430.6875 376.742188 439.324219 376.742188 Z M 439.324219 354.933594 C 442.730469 354.933594 445.488281 357.691406 445.488281 361.09375 C 445.488281 364.5 442.730469 367.257812 439.324219 367.257812 C 435.921875 367.257812 433.164062 364.496094 433.164062 361.09375 C 433.164062 357.691406 435.921875 354.933594 439.324219 354.933594 Z M 439.324219 354.933594 " fill-opacity="1" fill-rule="nonzero"/><path fill="#b89de6" d="M 450.574219 454.992188 C 441.9375 454.992188 434.933594 461.996094 434.933594 470.636719 C 434.933594 479.277344 441.9375 486.28125 450.574219 486.28125 C 459.214844 486.28125 466.21875 479.277344 466.21875 470.636719 C 466.21875 461.996094 459.214844 454.992188 450.574219 454.992188 Z M 450.574219 476.796875 C 447.171875 476.796875 444.414062 474.035156 444.414062 470.632812 C 444.414062 467.230469 447.171875 464.472656 450.574219 464.472656 C 453.980469 464.472656 456.738281 467.230469 456.738281 470.632812 C 456.738281 474.039062 453.980469 476.796875 450.574219 476.796875 Z M 450.574219 476.796875 " fill-opacity="1" fill-rule="nonzero"/><path fill="#b89de6" d="M 460.984375 409.578125 C 462.953125 411.257812 465.945312 411.035156 467.621094 409.058594 C 469.3125 407.074219 469.082031 404.097656 467.097656 402.40625 C 465.113281 400.710938 462.140625 400.949219 460.464844 402.925781 C 458.769531 404.90625 459.007812 407.878906 460.984375 409.578125 Z M 460.984375 409.578125 " fill-opacity="1" fill-rule="nonzero"/><path fill="#b89de6" d="M 385.800781 323.609375 C 383.824219 321.914062 380.832031 322.152344 379.117188 324.128906 C 377.425781 326.109375 377.660156 329.101562 379.65625 330.792969 C 381.636719 332.488281 384.628906 332.253906 386.324219 330.273438 C 388.015625 328.289062 387.78125 325.304688 385.800781 323.609375 Z M 385.800781 323.609375 " fill-opacity="1" fill-rule="nonzero"/><path fill="#b89de6" d="M 403.890625 314.265625 C 405.867188 315.960938 408.859375 315.722656 410.554688 313.726562 C 412.25 311.746094 412.011719 308.757812 410.035156 307.0625 C 408.054688 305.367188 405.0625 305.605469 403.367188 307.582031 C 401.667969 309.566406 401.90625 312.554688 403.890625 314.265625 Z M 403.890625 314.265625 " fill-opacity="1" fill-rule="nonzero"/><path fill="#b89de6" d="M 345.582031 306.140625 C 343.886719 308.121094 344.121094 311.113281 346.101562 312.808594 C 348.078125 314.503906 351.070312 314.265625 352.765625 312.285156 C 354.476562 310.308594 354.242188 307.316406 352.246094 305.621094 C 350.265625 303.921875 347.273438 304.140625 345.582031 306.140625 Z M 345.582031 306.140625 " fill-opacity="1" fill-rule="nonzero"/><path fill="#b89de6" d="M 276.039062 330.066406 C 278.035156 331.761719 281.027344 331.523438 282.71875 329.542969 C 284.414062 327.566406 284.179688 324.574219 282.199219 322.878906 C 280.203125 321.183594 277.210938 321.402344 275.515625 323.402344 C 273.816406 325.386719 274.050781 328.378906 276.039062 330.066406 Z M 276.039062 330.066406 " fill-opacity="1" fill-rule="nonzero"/><path fill="#b89de6" d="M 342.523438 271.878906 C 344.5 273.574219 347.492188 273.339844 349.1875 271.359375 C 350.882812 269.363281 350.644531 266.390625 348.667969 264.675781 C 346.6875 262.980469 343.695312 263.21875 342 265.199219 C 340.289062 267.195312 340.519531 270.179688 342.523438 271.878906 Z M 342.523438 271.878906 " fill-opacity="1" fill-rule="nonzero"/><path fill="#b89de6" d="M 309.722656 388.382812 C 307.746094 386.6875 304.753906 386.921875 303.058594 388.902344 C 301.363281 390.878906 301.601562 393.871094 303.582031 395.566406 C 305.558594 397.261719 308.550781 397.042969 310.246094 395.046875 C 311.941406 393.066406 311.703125 390.074219 309.722656 388.382812 Z M 309.722656 388.382812 " fill-opacity="1" fill-rule="nonzero"/><path fill="#b89de6" d="M 327.707031 341.457031 C 329.398438 339.480469 329.164062 336.488281 327.183594 334.792969 C 325.1875 333.097656 322.214844 333.335938 320.5 335.316406 C 318.808594 337.292969 319.042969 340.285156 321.023438 341.980469 C 323.023438 343.675781 326.011719 343.4375 327.707031 341.457031 Z M 327.707031 341.457031 " fill-opacity="1" fill-rule="nonzero"/><path fill="#b89de6" d="M 378.796875 461.515625 C 380.492188 459.527344 380.257812 456.554688 378.277344 454.878906 C 376.3125 453.183594 373.320312 453.421875 371.640625 455.398438 C 369.949219 457.367188 370.183594 460.339844 372.164062 462.035156 C 374.128906 463.734375 377.117188 463.5 378.796875 461.515625 Z M 378.796875 461.515625 " fill-opacity="1" fill-rule="nonzero"/><path fill="#b89de6" d="M 471.179688 435.199219 C 469.195312 433.503906 466.222656 433.734375 464.527344 435.699219 C 462.832031 437.6875 463.070312 440.660156 465.046875 442.355469 C 467.035156 444.046875 470.007812 443.8125 471.703125 441.832031 C 473.378906 439.855469 473.148438 436.878906 471.179688 435.199219 Z M 471.179688 435.199219 " fill-opacity="1" fill-rule="nonzero"/><path fill="#b89de6" d="M 479.847656 382.496094 C 481.542969 380.53125 481.304688 377.558594 479.328125 375.863281 C 477.34375 374.167969 474.367188 374.40625 472.671875 376.382812 C 470.996094 378.367188 471.214844 381.34375 473.195312 383.019531 C 475.179688 384.71875 478.148438 384.484375 479.847656 382.496094 Z M 479.847656 382.496094 " fill-opacity="1" fill-rule="nonzero"/><path fill="#b89de6" d="M 481.992188 477.230469 C 480.007812 475.539062 477.035156 475.773438 475.339844 477.753906 C 473.644531 479.738281 473.875 482.710938 475.859375 484.40625 C 477.84375 486.082031 480.820312 485.851562 482.515625 483.886719 C 484.195312 481.90625 483.960938 478.933594 481.992188 477.230469 Z M 481.992188 477.230469 " fill-opacity="1" fill-rule="nonzero"/><g clip-path="url(#0935c55bb9)"><path fill="#b89de6" d="M 527.789062 483.914062 C 527.417969 482.617188 526.476562 481.601562 525.289062 480.964844 C 516.597656 476.296875 514.628906 468.15625 515.839844 462.042969 C 516.277344 459.820312 515.023438 457.742188 512.996094 456.738281 C 500.160156 450.386719 500.335938 437.621094 505.898438 430.363281 C 506.941406 429 507.089844 427.21875 506.492188 425.609375 C 501.0625 411.035156 513.078125 403.980469 515.53125 402.925781 C 516.746094 402.402344 517.6875 401.390625 518.125 400.140625 C 518.566406 398.890625 518.421875 397.535156 517.835938 396.34375 C 511.75 383.921875 521.171875 375.761719 521.777344 375.246094 C 523.667969 373.628906 523.980469 370.824219 522.5 368.828125 C 517.808594 362.496094 512.351562 356.660156 506.289062 351.476562 C 490.820312 338.253906 472.601562 330.296875 453.828125 327.421875 C 452.972656 320.199219 451.386719 313.074219 449.074219 306.199219 C 440.128906 279.441406 421.300781 257.765625 396.050781 245.175781 C 370.816406 232.589844 342.179688 230.59375 315.425781 239.542969 C 288.664062 248.496094 266.996094 267.335938 254.40625 292.582031 C 241.816406 317.832031 239.816406 346.472656 248.773438 373.21875 C 255.25 392.574219 267.066406 409.507812 282.957031 422.191406 C 297.425781 433.738281 314.582031 441.269531 332.789062 444.101562 C 335.882812 470.609375 348.65625 494.609375 369.054688 512.039062 C 388.351562 528.542969 412.390625 537.390625 437.519531 537.390625 C 440.304688 537.390625 443.105469 537.285156 445.914062 537.0625 C 474.035156 534.867188 499.625 521.84375 517.957031 500.402344 C 521.34375 496.449219 524.472656 492.191406 527.257812 487.742188 C 527.972656 486.605469 528.164062 485.207031 527.789062 483.914062 Z M 332.089844 434.367188 C 297.722656 428.1875 268.898438 403.53125 257.753906 370.214844 C 249.601562 345.859375 251.425781 319.792969 262.886719 296.8125 C 274.34375 273.824219 294.070312 256.679688 318.433594 248.527344 C 342.789062 240.375 368.859375 242.199219 391.839844 253.65625 C 414.820312 265.113281 431.964844 284.84375 440.105469 309.207031 C 441.976562 314.785156 443.335938 320.542969 444.160156 326.386719 C 412.207031 324.460938 379.753906 336.984375 357.398438 363.128906 C 355.546875 365.300781 353.792969 367.53125 352.132812 369.8125 C 352.09375 369.765625 352.050781 369.738281 352.011719 369.699219 C 349.140625 366.238281 344.808594 364.03125 339.960938 364.03125 C 331.320312 364.03125 324.316406 371.035156 324.316406 379.671875 C 324.316406 387.828125 330.554688 394.519531 338.519531 395.25 C 333.949219 407.644531 331.738281 420.871094 332.089844 434.367188 Z M 333.800781 379.671875 C 333.800781 376.265625 336.558594 373.507812 339.960938 373.507812 C 343.175781 373.507812 345.8125 375.96875 346.097656 379.109375 C 344.960938 381.074219 343.882812 383.070312 342.882812 385.097656 C 337.894531 387.40625 333.800781 383.722656 333.800781 379.671875 Z M 510.757812 494.246094 C 494.066406 513.769531 470.777344 525.625 445.171875 527.621094 C 419.566406 529.617188 394.71875 521.53125 375.203125 504.839844 C 355.679688 488.15625 343.824219 464.875 341.816406 439.269531 C 339.816406 413.660156 347.902344 388.8125 364.589844 369.289062 C 383.585938 347.070312 410.585938 335.660156 437.742188 335.660156 C 459.847656 335.660156 482.058594 343.226562 500.140625 358.675781 C 504.636719 362.523438 508.765625 366.757812 512.445312 371.308594 C 506.5625 378.453125 504.835938 387.882812 507.632812 396.457031 C 504.589844 398.042969 491.421875 408.859375 496.851562 426.8125 C 485.164062 446.910156 500.886719 460.976562 506.085938 463.847656 C 505.042969 478.851562 516.195312 486.375 516.597656 486.675781 C 514.773438 489.304688 512.816406 491.835938 510.753906 494.246094 Z M 510.757812 494.246094 " fill-opacity="1" fill-rule="nonzero"/></g><path fill="#b89de6" d="M 429.769531 410.882812 C 431.460938 408.898438 431.226562 405.925781 429.246094 404.230469 C 427.261719 402.554688 424.289062 402.773438 422.613281 404.75 C 420.917969 406.734375 421.148438 409.710938 423.113281 411.402344 C 425.097656 413.097656 428.066406 412.867188 429.769531 410.882812 Z M 429.769531 410.882812 " fill-opacity="1" fill-rule="nonzero"/><path fill="#b89de6" d="M 399.085938 378.285156 C 401.070312 379.980469 404.042969 379.742188 405.738281 377.765625 C 407.433594 375.796875 407.203125 372.804688 405.214844 371.128906 C 403.230469 369.433594 400.257812 369.671875 398.5625 371.652344 C 396.886719 373.636719 397.117188 376.609375 399.085938 378.285156 Z M 399.085938 378.285156 " fill-opacity="1" fill-rule="nonzero"/><path fill="#b89de6" d="M 422.792969 441.980469 C 420.808594 440.285156 417.835938 440.523438 416.140625 442.503906 C 414.464844 444.488281 414.683594 447.460938 416.664062 449.15625 C 418.648438 450.832031 421.621094 450.613281 423.316406 448.632812 C 425.015625 446.65625 424.78125 443.679688 422.792969 441.980469 Z M 422.792969 441.980469 " fill-opacity="1" fill-rule="nonzero"/><path fill="#b89de6" d="M 435.359375 496.683594 C 433.375 494.988281 430.402344 495.226562 428.707031 497.203125 C 427.011719 499.1875 427.242188 502.164062 429.226562 503.855469 C 431.214844 505.550781 434.1875 505.3125 435.882812 503.335938 C 437.558594 501.351562 437.320312 498.382812 435.359375 496.683594 Z M 435.359375 496.683594 " fill-opacity="1" fill-rule="nonzero"/></svg>