<svg xmlns="http://www.w3.org/2000/svg" xmlns:xlink="http://www.w3.org/1999/xlink" width="1024" zoomAndPan="magnify" viewBox="0 0 768 767.999994" height="1024" preserveAspectRatio="xMidYMid meet" version="1.0"><defs><clipPath id="8f616def94"><path d="M 271.296875 230.398438 L 497 230.398438 L 497 537.898438 L 271.296875 537.898438 Z M 271.296875 230.398438 " clip-rule="nonzero"/></clipPath></defs><path fill="#b89de6" d="M 362.277344 312.839844 C 358.335938 312.839844 354.394531 314.339844 351.414062 317.320312 C 348.515625 320.21875 346.9375 324.078125 346.9375 328.199219 C 346.9375 332.296875 348.515625 336.160156 351.414062 339.058594 L 383.996094 371.636719 L 416.574219 339.058594 C 419.476562 336.160156 421.054688 332.296875 421.054688 328.199219 C 421.054688 324.078125 419.476562 320.21875 416.574219 317.320312 C 410.613281 311.339844 400.835938 311.359375 394.816406 317.339844 L 387.613281 324.539062 C 385.613281 326.539062 382.375 326.539062 380.375 324.539062 L 373.15625 317.320312 C 370.15625 314.339844 366.214844 312.839844 362.277344 312.839844 Z M 383.996094 383.996094 C 382.675781 383.996094 381.375 383.496094 380.375 382.496094 L 344.175781 346.296875 C 339.355469 341.476562 336.695312 335.039062 336.695312 328.199219 C 336.695312 321.339844 339.355469 314.917969 344.175781 310.078125 C 354.136719 300.140625 370.375 300.117188 380.375 310.058594 L 383.996094 313.679688 L 387.59375 310.078125 C 397.613281 300.117188 413.855469 300.117188 423.816406 310.078125 C 428.632812 314.917969 431.292969 321.339844 431.292969 328.199219 C 431.292969 335.039062 428.632812 341.457031 423.816406 346.296875 L 387.613281 382.496094 C 386.613281 383.496094 385.316406 383.996094 383.996094 383.996094 " fill-opacity="1" fill-rule="nonzero"/><path fill="#b89de6" d="M 383.996094 271.359375 C 347.296875 271.359375 317.4375 301.21875 317.4375 337.917969 C 317.4375 374.617188 347.296875 404.476562 383.996094 404.476562 C 420.695312 404.476562 450.554688 374.617188 450.554688 337.917969 C 450.554688 301.21875 420.695312 271.359375 383.996094 271.359375 Z M 383.996094 414.71875 C 341.65625 414.71875 307.195312 380.257812 307.195312 337.917969 C 307.195312 295.578125 341.65625 261.121094 383.996094 261.121094 C 426.355469 261.121094 460.792969 295.578125 460.792969 337.917969 C 460.792969 380.257812 426.355469 414.71875 383.996094 414.71875 " fill-opacity="1" fill-rule="nonzero"/><g clip-path="url(#8f616def94)"><path fill="#b89de6" d="M 383.996094 527.355469 C 327.675781 527.355469 296.957031 513.816406 296.957031 506.875 C 296.957031 502.035156 314.015625 491.636719 354.777344 487.714844 C 368.617188 503.554688 379.015625 514.214844 380.335938 515.574219 C 381.296875 516.554688 382.613281 517.117188 383.996094 517.117188 C 385.375 517.117188 386.695312 516.554688 387.65625 515.574219 C 388.976562 514.214844 399.375 503.554688 413.214844 487.714844 C 453.972656 491.636719 471.035156 502.035156 471.035156 506.875 C 471.035156 513.816406 440.3125 527.355469 383.996094 527.355469 Z M 383.996094 240.640625 C 440.453125 240.640625 486.394531 286.578125 486.394531 343.039062 C 486.394531 393.597656 402.675781 484.875 383.996094 504.597656 C 365.316406 484.875 281.597656 393.617188 281.597656 343.039062 C 281.597656 286.578125 327.535156 240.640625 383.996094 240.640625 Z M 421.316406 478.296875 C 453.375 440.457031 496.632812 382.136719 496.632812 343.039062 C 496.632812 280.917969 446.113281 230.398438 383.996094 230.398438 C 321.875 230.398438 271.355469 280.917969 271.355469 343.039062 C 271.355469 382.136719 314.617188 440.457031 346.675781 478.296875 C 324.976562 480.996094 286.714844 488.375 286.714844 506.875 C 286.714844 527.035156 335.65625 537.59375 383.996094 537.59375 C 432.335938 537.59375 481.273438 527.035156 481.273438 506.875 C 481.273438 488.375 443.015625 480.996094 421.316406 478.296875 " fill-opacity="1" fill-rule="nonzero"/></g></svg>