<svg xmlns="http://www.w3.org/2000/svg" xmlns:xlink="http://www.w3.org/1999/xlink" width="1024" zoomAndPan="magnify" viewBox="0 0 768 767.999994" height="1024" preserveAspectRatio="xMidYMid meet" version="1.0"><defs><clipPath id="abd44ec5f7"><path d="M 254.398438 256 L 555.148438 256 L 555.148438 561.898438 L 254.398438 561.898438 Z M 254.398438 256 " clip-rule="nonzero"/></clipPath></defs><path fill="#b89de6" d="M 553.335938 362.773438 L 553.335938 528.007812 C 553.335938 545.332031 539.292969 559.375 521.96875 559.375 L 287.898438 559.375 C 270.574219 559.375 256.53125 545.332031 256.53125 528.007812 L 256.53125 362.773438 L 373.652344 269.082031 C 391.941406 254.453125 417.925781 254.453125 436.210938 269.082031 Z M 553.335938 362.773438 " fill-opacity="1" fill-rule="nonzero"/><path fill="#f6f4e7" d="M 416.890625 348.433594 C 420.546875 352.085938 418.414062 360.621094 412.335938 366.703125 C 406.25 372.78125 397.714844 374.914062 394.066406 371.265625 C 390.410156 367.617188 392.542969 359.074219 398.628906 352.996094 C 401.859375 349.765625 405.847656 347.53125 409.574219 346.855469 C 410.195312 346.738281 410.988281 346.640625 411.855469 346.640625 C 413.535156 346.640625 415.484375 347.019531 416.890625 348.433594 Z M 506.671875 275.050781 L 506.671875 400.101562 L 438.480469 454.660156 C 418.867188 470.339844 391 470.339844 371.386719 454.660156 L 303.183594 400.097656 L 303.183594 275.050781 Z M 459.273438 357.351562 C 458.640625 348.433594 455.367188 339.582031 450.066406 332.441406 C 438.28125 316.558594 417.605469 308.582031 398.628906 312.582031 C 381.886719 316.101562 366.945312 328.890625 362.285156 343.667969 C 354.042969 369.808594 365.953125 398.738281 389.386719 409.527344 C 395.898438 412.519531 402.875 413.996094 409.78125 413.996094 C 418.992188 413.996094 428.082031 411.367188 435.757812 406.210938 C 437.871094 404.792969 438.742188 402.023438 437.566406 399.773438 C 436.183594 397.125 432.859375 396.339844 430.457031 397.96875 C 419.816406 405.203125 405.648438 406.21875 393.480469 400.621094 C 374.445312 391.859375 364.84375 368.140625 371.628906 346.617188 C 375.277344 335.054688 387.207031 324.996094 400.652344 322.164062 C 415.714844 318.996094 432.796875 325.617188 442.195312 338.277344 C 446.398438 343.941406 448.996094 350.960938 449.496094 358.039062 C 449.933594 364.214844 448.984375 372.375 445.015625 376.753906 C 443.082031 378.898438 440.371094 379.632812 437.578125 378.777344 C 434.125 377.714844 431.316406 373.664062 429.957031 370.519531 C 425.976562 361.28125 430.03125 351.125 431.957031 347.191406 C 433.691406 343.636719 430.578125 339.765625 426.742188 340.316406 C 424.75 340.605469 424.371094 341.546875 422.472656 340.609375 C 420.761719 339.769531 419.390625 338.308594 417.484375 337.699219 C 414.375 336.707031 411.027344 336.632812 407.832031 337.210938 C 402.101562 338.246094 396.367188 341.394531 391.695312 346.070312 C 381.414062 356.351562 379.410156 370.464844 387.132812 378.191406 C 390.300781 381.359375 394.535156 382.894531 399.140625 382.894531 C 405.78125 382.894531 413.1875 379.707031 419.273438 373.621094 C 419.738281 373.160156 420.515625 373.304688 420.761719 373.914062 C 420.828125 374.078125 420.894531 374.238281 420.960938 374.402344 C 422.074219 376.972656 426.347656 385.574219 434.703125 388.144531 C 441.089844 390.101562 447.820312 388.261719 452.277344 383.332031 C 459.667969 375.167969 459.632812 362.445312 459.273438 357.351562 Z M 459.273438 357.351562 " fill-opacity="1" fill-rule="nonzero"/><g clip-path="url(#abd44ec5f7)"><path fill="#000000" d="M 555.457031 362.699219 C 555.457031 362.660156 555.457031 362.617188 555.453125 362.578125 C 555.449219 362.527344 555.4375 362.480469 555.429688 362.433594 C 555.421875 362.382812 555.414062 362.332031 555.402344 362.28125 C 555.394531 362.246094 555.386719 362.207031 555.375 362.171875 C 555.363281 362.125 555.34375 362.082031 555.328125 362.039062 C 555.308594 361.984375 555.285156 361.933594 555.261719 361.882812 C 555.25 361.851562 555.238281 361.820312 555.222656 361.789062 C 555.199219 361.746094 555.171875 361.710938 555.148438 361.667969 C 555.117188 361.617188 555.082031 361.570312 555.046875 361.519531 C 555.03125 361.496094 555.019531 361.46875 555 361.445312 C 554.996094 361.441406 554.992188 361.4375 554.988281 361.433594 C 554.960938 361.402344 554.929688 361.375 554.902344 361.34375 C 554.859375 361.296875 554.816406 361.253906 554.769531 361.210938 C 554.738281 361.183594 554.710938 361.152344 554.679688 361.125 C 554.675781 361.121094 554.671875 361.117188 554.667969 361.113281 L 508.804688 324.425781 L 508.804688 275.050781 C 508.804688 273.875 507.851562 272.917969 506.671875 272.917969 L 444.425781 272.917969 L 439.808594 269.226562 C 429.945312 261.335938 417.5625 256.992188 404.933594 256.992188 C 392.304688 256.992188 379.917969 261.335938 370.054688 269.226562 L 365.433594 272.917969 L 303.183594 272.917969 C 302.003906 272.917969 301.050781 273.875 301.050781 275.050781 L 301.050781 324.429688 L 255.199219 361.113281 C 255.195312 361.117188 255.195312 361.121094 255.191406 361.121094 C 255.160156 361.148438 255.132812 361.179688 255.101562 361.207031 C 255.050781 361.253906 255.003906 361.300781 254.957031 361.351562 C 254.933594 361.378906 254.902344 361.402344 254.882812 361.429688 C 254.878906 361.4375 254.871094 361.441406 254.867188 361.445312 C 254.851562 361.46875 254.839844 361.492188 254.824219 361.515625 C 254.78125 361.570312 254.746094 361.625 254.710938 361.683594 C 254.691406 361.71875 254.667969 361.75 254.648438 361.785156 C 254.632812 361.816406 254.621094 361.847656 254.605469 361.878906 C 254.578125 361.933594 254.554688 361.992188 254.535156 362.054688 C 254.519531 362.089844 254.503906 362.128906 254.492188 362.167969 C 254.480469 362.203125 254.476562 362.238281 254.464844 362.277344 C 254.453125 362.332031 254.441406 362.390625 254.433594 362.449219 C 254.425781 362.488281 254.417969 362.53125 254.414062 362.570312 C 254.410156 362.613281 254.410156 362.652344 254.410156 362.695312 C 254.40625 362.722656 254.398438 362.75 254.398438 362.777344 L 254.398438 525.742188 C 254.398438 545.464844 270.445312 561.507812 290.167969 561.507812 L 519.695312 561.507812 C 539.421875 561.507812 555.464844 545.464844 555.464844 525.742188 L 555.464844 362.777344 C 555.464844 362.75 555.460938 362.726562 555.457031 362.699219 Z M 508.804688 329.882812 L 549.921875 362.777344 L 508.804688 395.667969 Z M 372.71875 272.554688 C 381.828125 265.269531 393.269531 261.257812 404.933594 261.257812 C 416.597656 261.257812 428.035156 265.269531 437.144531 272.554688 L 437.597656 272.917969 L 372.261719 272.917969 Z M 305.3125 277.183594 L 504.539062 277.183594 L 504.539062 399.082031 L 499.90625 402.789062 L 437.144531 452.992188 C 428.605469 459.824219 418.019531 463.777344 407.117188 464.242188 C 406.890625 464.253906 406.660156 464.25 406.433594 464.257812 C 405.933594 464.273438 405.433594 464.289062 404.933594 464.289062 C 403.609375 464.289062 402.285156 464.230469 400.96875 464.128906 C 400.578125 464.097656 400.1875 464.058594 399.796875 464.019531 C 391.46875 463.179688 383.417969 460.316406 376.433594 455.695312 C 375.160156 454.851562 373.917969 453.953125 372.722656 452.992188 L 305.3125 399.070312 Z M 301.050781 329.890625 L 301.050781 395.660156 L 259.945312 362.777344 Z M 258.664062 367.214844 L 301.839844 401.753906 C 301.84375 401.757812 301.847656 401.761719 301.851562 401.761719 L 352.488281 442.269531 L 357.820312 446.535156 L 264.660156 544.199219 C 260.894531 539.007812 258.664062 532.632812 258.664062 525.742188 Z M 519.695312 557.246094 L 290.167969 557.246094 C 281.222656 557.246094 273.140625 553.488281 267.402344 547.480469 C 267.441406 547.445312 267.488281 547.414062 267.527344 547.375 L 361.164062 449.210938 L 370.054688 456.324219 C 379.917969 464.210938 392.304688 468.554688 404.933594 468.554688 C 406.511719 468.554688 408.085938 468.488281 409.652344 468.351562 C 420.621094 467.414062 431.183594 463.226562 439.8125 456.324219 L 448.703125 449.210938 L 542.339844 547.375 C 542.378906 547.414062 542.425781 547.445312 542.464844 547.480469 C 536.726562 553.488281 528.644531 557.246094 519.695312 557.246094 Z M 551.203125 525.742188 C 551.203125 532.632812 548.972656 539.007812 545.203125 544.199219 L 452.042969 446.539062 L 551.203125 367.214844 Z M 411.851562 344.507812 C 410.992188 344.507812 410.101562 344.589844 409.199219 344.753906 C 405.050781 345.507812 400.648438 347.960938 397.117188 351.488281 C 393.90625 354.699219 391.601562 358.617188 390.625 362.523438 C 389.570312 366.753906 390.273438 370.488281 392.554688 372.773438 C 394.144531 374.359375 396.429688 375.183594 399.097656 375.183594 C 400.269531 375.183594 401.511719 375.023438 402.804688 374.703125 C 406.710938 373.726562 410.628906 371.421875 413.839844 368.210938 C 420.84375 361.207031 422.933594 351.457031 418.402344 346.925781 C 416.820312 345.34375 414.558594 344.507812 411.851562 344.507812 Z M 410.824219 365.195312 C 408.191406 367.828125 404.890625 369.785156 401.769531 370.566406 C 399.027344 371.25 396.769531 370.957031 395.570312 369.757812 C 394.375 368.558594 394.078125 366.300781 394.765625 363.558594 C 395.542969 360.4375 397.5 357.136719 400.132812 354.503906 C 403.0625 351.574219 406.644531 349.550781 409.957031 348.949219 C 410.609375 348.832031 411.246094 348.773438 411.851562 348.773438 C 413.421875 348.773438 414.613281 349.167969 415.386719 349.941406 C 417.859375 352.414062 416.40625 359.617188 410.824219 365.195312 Z M 388.496094 411.460938 C 395.132812 414.515625 402.492188 416.128906 409.777344 416.128906 C 409.777344 416.128906 409.78125 416.128906 409.78125 416.128906 C 419.617188 416.128906 429.011719 413.3125 436.949219 407.980469 C 440.035156 405.910156 441.113281 401.953125 439.457031 398.785156 C 438.523438 396.996094 436.871094 395.6875 434.925781 395.199219 C 432.988281 394.714844 430.917969 395.078125 429.257812 396.203125 C 419.230469 403.019531 405.863281 403.972656 394.375 398.6875 C 376.292969 390.363281 367.195312 367.773438 373.664062 347.257812 C 377.089844 336.394531 388.367188 326.933594 401.089844 324.253906 C 415.367188 321.25 431.566406 327.539062 440.484375 339.550781 C 444.453125 344.894531 446.894531 351.511719 447.367188 358.191406 C 447.753906 363.664062 446.957031 371.433594 443.4375 375.320312 C 442.054688 376.847656 440.199219 377.351562 438.207031 376.738281 C 435.625 375.945312 433.1875 372.617188 431.917969 369.675781 C 428.285156 361.25 432.074219 351.800781 433.871094 348.125 C 435.007812 345.804688 434.777344 343.171875 433.253906 341.082031 C 431.691406 338.929688 429.078125 337.828125 426.441406 338.207031 C 425.5625 338.332031 424.921875 338.558594 424.457031 338.71875 C 423.875 338.925781 423.875 338.925781 423.414062 338.699219 C 422.855469 338.421875 422.292969 338.03125 421.695312 337.613281 C 420.695312 336.914062 419.5625 336.121094 418.128906 335.667969 C 414.875 334.628906 411.183594 334.4375 407.453125 335.113281 C 401.296875 336.226562 395.167969 339.582031 390.1875 344.558594 C 384.890625 349.859375 381.464844 356.332031 380.550781 362.789062 C 379.601562 369.472656 381.402344 375.476562 385.628906 379.699219 C 389.109375 383.183594 393.78125 385.023438 399.140625 385.023438 C 406.109375 385.023438 413.449219 381.878906 419.507812 376.34375 C 421.25 379.945312 425.832031 387.648438 434.078125 390.179688 C 441.257812 392.386719 448.839844 390.308594 453.863281 384.761719 C 461.800781 375.992188 461.777344 362.566406 461.398438 357.199219 C 460.738281 347.878906 457.320312 338.632812 451.777344 331.167969 C 439.503906 314.636719 417.96875 306.328125 398.191406 310.492188 C 380.734375 314.167969 365.132812 327.550781 360.253906 343.027344 C 351.695312 370.175781 364.101562 400.234375 388.496094 411.460938 Z M 364.320312 344.3125 C 368.757812 330.230469 383.046875 318.039062 399.070312 314.664062 C 402.195312 314.007812 405.363281 313.6875 408.53125 313.6875 C 423.800781 313.6875 438.996094 321.105469 448.351562 333.710938 C 453.417969 340.53125 456.539062 348.980469 457.144531 357.5 C 457.484375 362.320312 457.539062 374.347656 450.699219 381.898438 C 446.800781 386.207031 440.910156 387.820312 435.328125 386.105469 C 427.847656 383.804688 423.941406 375.917969 422.917969 373.554688 C 422.855469 373.40625 422.796875 373.261719 422.734375 373.113281 C 422.351562 372.164062 421.523438 371.480469 420.527344 371.277344 C 419.523438 371.074219 418.488281 371.386719 417.765625 372.113281 C 412.269531 377.609375 405.480469 380.757812 399.140625 380.757812 C 394.9375 380.757812 391.308594 379.351562 388.644531 376.6875 C 385.390625 373.433594 384.015625 368.710938 384.769531 363.390625 C 385.558594 357.84375 388.554688 352.226562 393.203125 347.574219 C 397.574219 343.207031 402.902344 340.269531 408.210938 339.308594 C 411.261719 338.757812 414.242188 338.902344 416.835938 339.730469 C 417.652344 339.988281 418.429688 340.535156 419.253906 341.109375 C 419.957031 341.597656 420.679688 342.105469 421.527344 342.523438 C 423.59375 343.542969 424.90625 343.082031 425.863281 342.746094 C 426.25 342.609375 426.582031 342.496094 427.046875 342.425781 C 428.324219 342.242188 429.3125 342.90625 429.808594 343.589844 C 430.085938 343.96875 430.660156 344.988281 430.042969 346.25 C 427.984375 350.453125 423.667969 361.3125 428.003906 371.363281 C 429.613281 375.097656 432.8125 379.542969 436.953125 380.8125 C 440.511719 381.90625 444.117188 380.925781 446.597656 378.183594 C 452.160156 372.042969 451.847656 361.097656 451.621094 357.890625 C 451.09375 350.410156 448.351562 342.996094 443.910156 337.007812 C 434.03125 323.703125 416.0625 316.742188 400.210938 320.082031 C 386.050781 323.0625 373.464844 333.710938 369.597656 345.976562 C 362.496094 368.503906 372.597656 393.355469 392.59375 402.558594 C 405.429688 408.46875 420.398438 407.382812 431.65625 399.730469 C 432.308594 399.289062 433.121094 399.144531 433.886719 399.335938 C 434.664062 399.53125 435.300781 400.035156 435.675781 400.757812 C 436.316406 401.980469 435.828125 403.597656 434.574219 404.441406 C 427.339844 409.296875 418.769531 411.863281 409.78125 411.863281 C 409.78125 411.863281 409.777344 411.863281 409.777344 411.863281 C 403.101562 411.863281 396.359375 410.386719 390.277344 407.585938 C 367.796875 397.242188 356.394531 369.449219 364.320312 344.3125 Z M 364.320312 344.3125 " fill-opacity="1" fill-rule="nonzero"/></g></svg>