<svg xmlns="http://www.w3.org/2000/svg" xmlns:xlink="http://www.w3.org/1999/xlink" width="1024" zoomAndPan="magnify" viewBox="0 0 768 767.999994" height="1024" preserveAspectRatio="xMidYMid meet" version="1.0"><defs><clipPath id="a4dd74c83a"><path d="M 230.398438 230.398438 L 537.898438 230.398438 L 537.898438 537.898438 L 230.398438 537.898438 Z M 230.398438 230.398438 " clip-rule="nonzero"/></clipPath></defs><g clip-path="url(#a4dd74c83a)"><path fill="#b89de6" d="M 510.023438 537.59375 L 257.972656 537.59375 C 257.070312 537.59375 256.171875 537.550781 255.273438 537.460938 C 254.375 537.371094 253.480469 537.238281 252.597656 537.0625 C 251.710938 536.882812 250.835938 536.664062 249.972656 536.402344 C 249.109375 536.140625 248.261719 535.835938 247.425781 535.488281 C 246.59375 535.144531 245.777344 534.757812 244.980469 534.332031 C 244.183594 533.90625 243.410156 533.441406 242.660156 532.9375 C 241.910156 532.4375 241.1875 531.898438 240.488281 531.328125 C 239.792969 530.753906 239.125 530.148438 238.484375 529.511719 C 237.847656 528.871094 237.242188 528.203125 236.667969 527.507812 C 236.09375 526.808594 235.558594 526.085938 235.054688 525.332031 C 234.554688 524.582031 234.089844 523.808594 233.664062 523.015625 C 233.238281 522.21875 232.851562 521.402344 232.507812 520.570312 C 232.160156 519.734375 231.855469 518.886719 231.59375 518.023438 C 231.332031 517.160156 231.113281 516.285156 230.933594 515.398438 C 230.757812 514.515625 230.625 513.621094 230.535156 512.722656 C 230.445312 511.824219 230.402344 510.925781 230.398438 510.023438 L 230.398438 257.972656 C 230.402344 257.070312 230.445312 256.171875 230.535156 255.273438 C 230.625 254.375 230.757812 253.480469 230.933594 252.597656 C 231.113281 251.710938 231.332031 250.835938 231.59375 249.972656 C 231.855469 249.109375 232.160156 248.261719 232.507812 247.425781 C 232.851562 246.59375 233.238281 245.777344 233.664062 244.980469 C 234.089844 244.183594 234.554688 243.410156 235.054688 242.660156 C 235.558594 241.910156 236.09375 241.1875 236.667969 240.488281 C 237.242188 239.792969 237.847656 239.125 238.484375 238.484375 C 239.125 237.847656 239.792969 237.242188 240.488281 236.667969 C 241.1875 236.09375 241.910156 235.558594 242.660156 235.054688 C 243.410156 234.554688 244.183594 234.089844 244.980469 233.664062 C 245.777344 233.238281 246.59375 232.851562 247.425781 232.507812 C 248.261719 232.160156 249.109375 231.855469 249.972656 231.59375 C 250.835938 231.332031 251.710938 231.113281 252.597656 230.933594 C 253.480469 230.757812 254.375 230.625 255.273438 230.535156 C 256.171875 230.445312 257.070312 230.402344 257.972656 230.398438 L 510.023438 230.398438 C 510.925781 230.402344 511.824219 230.445312 512.722656 230.535156 C 513.621094 230.625 514.515625 230.757812 515.398438 230.933594 C 516.285156 231.113281 517.160156 231.332031 518.023438 231.59375 C 518.886719 231.855469 519.734375 232.160156 520.570312 232.507812 C 521.402344 232.851562 522.21875 233.238281 523.015625 233.664062 C 523.808594 234.089844 524.582031 234.554688 525.332031 235.054688 C 526.085938 235.558594 526.808594 236.09375 527.507812 236.667969 C 528.203125 237.242188 528.871094 237.847656 529.511719 238.484375 C 530.148438 239.125 530.753906 239.792969 531.328125 240.488281 C 531.898438 241.1875 532.4375 241.910156 532.9375 242.660156 C 533.441406 243.410156 533.90625 244.183594 534.332031 244.980469 C 534.757812 245.777344 535.140625 246.59375 535.488281 247.425781 C 535.835938 248.261719 536.140625 249.109375 536.402344 249.972656 C 536.664062 250.835938 536.882812 251.710938 537.0625 252.597656 C 537.238281 253.480469 537.371094 254.375 537.460938 255.273438 C 537.550781 256.171875 537.59375 257.070312 537.59375 257.972656 L 537.59375 510.023438 C 537.59375 510.925781 537.550781 511.824219 537.460938 512.722656 C 537.371094 513.621094 537.238281 514.515625 537.058594 515.398438 C 536.882812 516.285156 536.664062 517.160156 536.402344 518.023438 C 536.136719 518.886719 535.835938 519.734375 535.488281 520.570312 C 535.140625 521.402344 534.757812 522.21875 534.332031 523.015625 C 533.90625 523.808594 533.441406 524.582031 532.9375 525.332031 C 532.4375 526.085938 531.898438 526.808594 531.328125 527.507812 C 530.753906 528.203125 530.148438 528.871094 529.511719 529.511719 C 528.871094 530.148438 528.203125 530.753906 527.507812 531.328125 C 526.808594 531.898438 526.085938 532.4375 525.332031 532.9375 C 524.582031 533.441406 523.808594 533.90625 523.015625 534.332031 C 522.21875 534.757812 521.402344 535.140625 520.570312 535.488281 C 519.734375 535.835938 518.886719 536.140625 518.023438 536.402344 C 517.160156 536.664062 516.285156 536.882812 515.398438 537.0625 C 514.515625 537.238281 513.621094 537.371094 512.722656 537.460938 C 511.824219 537.550781 510.925781 537.59375 510.023438 537.59375 Z M 257.972656 240.789062 C 257.410156 240.789062 256.847656 240.816406 256.289062 240.871094 C 255.730469 240.929688 255.171875 241.011719 254.621094 241.121094 C 254.070312 241.230469 253.523438 241.367188 252.988281 241.53125 C 252.449219 241.695312 251.917969 241.886719 251.398438 242.101562 C 250.878906 242.316406 250.371094 242.558594 249.875 242.824219 C 249.378906 243.089844 248.898438 243.378906 248.429688 243.691406 C 247.960938 244.003906 247.511719 244.335938 247.078125 244.695312 C 246.640625 245.050781 246.226562 245.429688 245.828125 245.828125 C 245.429688 246.226562 245.050781 246.640625 244.695312 247.078125 C 244.335938 247.511719 244.003906 247.960938 243.691406 248.429688 C 243.378906 248.898438 243.089844 249.378906 242.824219 249.875 C 242.558594 250.371094 242.316406 250.878906 242.101562 251.398438 C 241.886719 251.917969 241.695312 252.449219 241.53125 252.988281 C 241.367188 253.523438 241.230469 254.070312 241.121094 254.621094 C 241.011719 255.171875 240.929688 255.730469 240.871094 256.289062 C 240.816406 256.847656 240.789062 257.410156 240.789062 257.972656 L 240.789062 510.023438 C 240.789062 510.585938 240.816406 511.144531 240.871094 511.707031 C 240.929688 512.265625 241.011719 512.820312 241.121094 513.375 C 241.230469 513.925781 241.367188 514.46875 241.53125 515.007812 C 241.695312 515.546875 241.886719 516.074219 242.101562 516.59375 C 242.316406 517.113281 242.558594 517.625 242.824219 518.121094 C 243.089844 518.617188 243.378906 519.097656 243.691406 519.566406 C 244.003906 520.03125 244.335938 520.484375 244.695312 520.917969 C 245.050781 521.355469 245.429688 521.769531 245.828125 522.167969 C 246.226562 522.566406 246.640625 522.945312 247.078125 523.300781 C 247.511719 523.65625 247.960938 523.992188 248.429688 524.304688 C 248.898438 524.617188 249.378906 524.90625 249.875 525.171875 C 250.371094 525.4375 250.878906 525.679688 251.398438 525.894531 C 251.917969 526.109375 252.449219 526.300781 252.988281 526.464844 C 253.523438 526.625 254.070312 526.761719 254.621094 526.875 C 255.171875 526.984375 255.730469 527.066406 256.289062 527.121094 C 256.847656 527.179688 257.410156 527.207031 257.972656 527.207031 L 510.023438 527.207031 C 510.585938 527.207031 511.144531 527.179688 511.707031 527.121094 C 512.265625 527.066406 512.820312 526.984375 513.375 526.875 C 513.925781 526.761719 514.46875 526.625 515.007812 526.464844 C 515.546875 526.300781 516.074219 526.109375 516.59375 525.894531 C 517.113281 525.679688 517.625 525.4375 518.121094 525.171875 C 518.617188 524.90625 519.097656 524.617188 519.566406 524.304688 C 520.03125 523.992188 520.484375 523.65625 520.917969 523.300781 C 521.355469 522.945312 521.769531 522.566406 522.167969 522.167969 C 522.566406 521.769531 522.945312 521.355469 523.300781 520.917969 C 523.65625 520.484375 523.992188 520.03125 524.304688 519.566406 C 524.617188 519.097656 524.90625 518.617188 525.171875 518.121094 C 525.4375 517.625 525.679688 517.113281 525.894531 516.59375 C 526.109375 516.074219 526.300781 515.546875 526.460938 515.007812 C 526.625 514.46875 526.761719 513.925781 526.875 513.375 C 526.984375 512.820312 527.066406 512.265625 527.121094 511.707031 C 527.179688 511.144531 527.207031 510.585938 527.207031 510.023438 L 527.207031 257.972656 C 527.207031 257.410156 527.179688 256.847656 527.121094 256.289062 C 527.066406 255.730469 526.984375 255.171875 526.875 254.621094 C 526.761719 254.070312 526.625 253.523438 526.464844 252.988281 C 526.300781 252.449219 526.109375 251.917969 525.894531 251.398438 C 525.679688 250.878906 525.4375 250.371094 525.171875 249.875 C 524.90625 249.378906 524.617188 248.898438 524.304688 248.429688 C 523.992188 247.960938 523.65625 247.511719 523.300781 247.078125 C 522.945312 246.640625 522.566406 246.226562 522.167969 245.828125 C 521.769531 245.429688 521.355469 245.050781 520.917969 244.695312 C 520.484375 244.335938 520.03125 244.003906 519.566406 243.691406 C 519.097656 243.378906 518.617188 243.089844 518.121094 242.824219 C 517.625 242.558594 517.113281 242.316406 516.59375 242.101562 C 516.074219 241.886719 515.546875 241.695312 515.007812 241.53125 C 514.46875 241.367188 513.925781 241.230469 513.375 241.121094 C 512.820312 241.011719 512.265625 240.929688 511.707031 240.871094 C 511.144531 240.816406 510.585938 240.789062 510.023438 240.789062 Z M 257.972656 240.789062 " fill-opacity="1" fill-rule="nonzero"/></g><path fill="#b89de6" d="M 498.523438 514.320312 L 269.472656 514.320312 C 268.433594 514.320312 267.40625 514.21875 266.390625 514.015625 C 265.375 513.8125 264.386719 513.511719 263.429688 513.113281 C 262.46875 512.71875 261.5625 512.230469 260.699219 511.652344 C 259.835938 511.078125 259.039062 510.421875 258.304688 509.691406 C 257.574219 508.957031 256.917969 508.160156 256.339844 507.296875 C 255.765625 506.433594 255.277344 505.523438 254.878906 504.566406 C 254.484375 503.609375 254.183594 502.621094 253.980469 501.605469 C 253.777344 500.589844 253.675781 499.5625 253.671875 498.523438 L 253.671875 269.472656 C 253.675781 268.433594 253.777344 267.40625 253.980469 266.390625 C 254.183594 265.375 254.484375 264.386719 254.878906 263.429688 C 255.277344 262.46875 255.765625 261.5625 256.339844 260.699219 C 256.917969 259.835938 257.574219 259.039062 258.304688 258.304688 C 259.039062 257.574219 259.835938 256.917969 260.699219 256.339844 C 261.5625 255.765625 262.46875 255.277344 263.429688 254.882812 C 264.386719 254.484375 265.375 254.183594 266.390625 253.980469 C 267.40625 253.777344 268.433594 253.675781 269.472656 253.671875 L 498.523438 253.671875 C 499.5625 253.675781 500.589844 253.777344 501.605469 253.980469 C 502.621094 254.183594 503.609375 254.484375 504.566406 254.882812 C 505.523438 255.277344 506.433594 255.765625 507.296875 256.339844 C 508.160156 256.917969 508.957031 257.574219 509.691406 258.304688 C 510.421875 259.039062 511.078125 259.835938 511.652344 260.699219 C 512.230469 261.5625 512.71875 262.46875 513.113281 263.429688 C 513.511719 264.386719 513.8125 265.375 514.015625 266.390625 C 514.21875 267.40625 514.320312 268.433594 514.320312 269.472656 L 514.320312 498.523438 C 514.320312 499.5625 514.21875 500.589844 514.015625 501.605469 C 513.8125 502.621094 513.511719 503.609375 513.113281 504.566406 C 512.71875 505.523438 512.230469 506.433594 511.652344 507.296875 C 511.078125 508.160156 510.421875 508.957031 509.691406 509.691406 C 508.957031 510.421875 508.160156 511.078125 507.296875 511.652344 C 506.433594 512.230469 505.523438 512.71875 504.566406 513.113281 C 503.609375 513.511719 502.621094 513.8125 501.605469 514.015625 C 500.589844 514.21875 499.5625 514.320312 498.523438 514.320312 Z M 269.472656 264.0625 C 269.117188 264.0625 268.765625 264.097656 268.417969 264.167969 C 268.066406 264.238281 267.730469 264.339844 267.402344 264.476562 C 267.074219 264.613281 266.761719 264.777344 266.46875 264.976562 C 266.171875 265.171875 265.898438 265.398438 265.648438 265.648438 C 265.398438 265.898438 265.171875 266.171875 264.976562 266.46875 C 264.777344 266.761719 264.613281 267.074219 264.476562 267.402344 C 264.339844 267.730469 264.238281 268.066406 264.167969 268.417969 C 264.097656 268.765625 264.0625 269.117188 264.0625 269.472656 L 264.0625 498.523438 C 264.0625 498.878906 264.097656 499.230469 264.167969 499.578125 C 264.238281 499.925781 264.339844 500.265625 264.476562 500.59375 C 264.613281 500.921875 264.777344 501.234375 264.976562 501.527344 C 265.171875 501.824219 265.398438 502.097656 265.648438 502.347656 C 265.898438 502.597656 266.171875 502.824219 266.46875 503.019531 C 266.761719 503.21875 267.074219 503.382812 267.402344 503.519531 C 267.730469 503.65625 268.066406 503.757812 268.417969 503.828125 C 268.765625 503.898438 269.117188 503.933594 269.472656 503.933594 L 498.523438 503.933594 C 498.878906 503.933594 499.230469 503.898438 499.578125 503.828125 C 499.925781 503.757812 500.265625 503.65625 500.59375 503.519531 C 500.921875 503.382812 501.234375 503.21875 501.527344 503.019531 C 501.824219 502.824219 502.097656 502.597656 502.347656 502.347656 C 502.597656 502.097656 502.824219 501.824219 503.019531 501.527344 C 503.21875 501.234375 503.382812 500.921875 503.519531 500.59375 C 503.65625 500.265625 503.757812 499.925781 503.828125 499.578125 C 503.898438 499.230469 503.933594 498.878906 503.933594 498.523438 L 503.933594 269.472656 C 503.933594 269.117188 503.898438 268.765625 503.828125 268.417969 C 503.757812 268.066406 503.65625 267.730469 503.519531 267.402344 C 503.382812 267.074219 503.21875 266.761719 503.019531 266.46875 C 502.824219 266.171875 502.597656 265.898438 502.347656 265.648438 C 502.097656 265.398438 501.824219 265.171875 501.527344 264.976562 C 501.234375 264.777344 500.921875 264.613281 500.59375 264.476562 C 500.265625 264.339844 499.925781 264.238281 499.578125 264.167969 C 499.230469 264.097656 498.878906 264.0625 498.523438 264.0625 Z M 269.472656 264.0625 " fill-opacity="1" fill-rule="nonzero"/><path fill="#b89de6" d="M 313.585938 492.738281 L 286.589844 492.738281 C 286.25 492.738281 285.910156 492.703125 285.574219 492.636719 C 285.242188 492.570312 284.917969 492.472656 284.601562 492.339844 C 284.285156 492.210938 283.988281 492.050781 283.703125 491.859375 C 283.421875 491.671875 283.15625 491.457031 282.917969 491.214844 C 282.675781 490.972656 282.460938 490.710938 282.269531 490.429688 C 282.082031 490.144531 281.921875 489.84375 281.789062 489.53125 C 281.660156 489.214844 281.5625 488.890625 281.496094 488.554688 C 281.429688 488.222656 281.394531 487.882812 281.394531 487.542969 L 281.394531 339.054688 C 281.394531 338.710938 281.429688 338.375 281.496094 338.039062 C 281.5625 337.707031 281.660156 337.382812 281.789062 337.066406 C 281.921875 336.75 282.082031 336.453125 282.269531 336.167969 C 282.460938 335.882812 282.675781 335.621094 282.917969 335.378906 C 283.15625 335.140625 283.421875 334.925781 283.703125 334.734375 C 283.988281 334.546875 284.285156 334.386719 284.601562 334.253906 C 284.917969 334.125 285.242188 334.027344 285.574219 333.960938 C 285.910156 333.894531 286.25 333.859375 286.589844 333.859375 L 313.585938 333.859375 C 313.929688 333.859375 314.265625 333.894531 314.601562 333.960938 C 314.933594 334.027344 315.261719 334.125 315.574219 334.253906 C 315.890625 334.386719 316.191406 334.546875 316.472656 334.734375 C 316.757812 334.925781 317.019531 335.140625 317.261719 335.378906 C 317.5 335.621094 317.71875 335.882812 317.90625 336.167969 C 318.097656 336.453125 318.253906 336.75 318.386719 337.066406 C 318.515625 337.382812 318.617188 337.707031 318.683594 338.039062 C 318.75 338.375 318.78125 338.710938 318.78125 339.054688 L 318.78125 487.542969 C 318.78125 487.882812 318.75 488.222656 318.683594 488.554688 C 318.617188 488.890625 318.515625 489.214844 318.386719 489.53125 C 318.253906 489.84375 318.097656 490.144531 317.90625 490.429688 C 317.71875 490.710938 317.5 490.972656 317.261719 491.214844 C 317.019531 491.457031 316.757812 491.671875 316.472656 491.859375 C 316.191406 492.050781 315.890625 492.210938 315.574219 492.339844 C 315.261719 492.472656 314.933594 492.570312 314.601562 492.636719 C 314.265625 492.703125 313.929688 492.738281 313.585938 492.738281 Z M 291.785156 482.347656 L 308.394531 482.347656 L 308.394531 344.246094 L 291.785156 344.246094 Z M 299.472656 319.105469 C 298.035156 319.121094 296.613281 318.992188 295.203125 318.71875 C 293.789062 318.445312 292.421875 318.03125 291.09375 317.480469 C 289.765625 316.929688 288.507812 316.246094 287.320312 315.4375 C 286.132812 314.628906 285.039062 313.710938 284.035156 312.679688 C 283.066406 311.652344 282.203125 310.546875 281.445312 309.355469 C 280.6875 308.164062 280.050781 306.910156 279.535156 305.597656 C 279.019531 304.285156 278.636719 302.933594 278.382812 301.542969 C 278.125 300.15625 278.007812 298.757812 278.023438 297.34375 C 278.023438 284.761719 287.507812 275.273438 300.089844 275.273438 C 312.671875 275.273438 321.808594 284.515625 321.851562 297.257812 C 322.023438 303.089844 319.996094 308.507812 316.117188 312.511719 C 312.023438 316.75 306.085938 319.089844 299.472656 319.089844 Z M 300.089844 285.660156 C 293.324219 285.660156 288.410156 290.574219 288.410156 297.34375 C 288.410156 303.933594 293.0625 308.714844 299.472656 308.714844 C 303.308594 308.714844 306.480469 307.53125 308.648438 305.289062 C 310.59375 303.277344 311.570312 300.589844 311.464844 297.515625 C 311.464844 297.460938 311.464844 297.402344 311.464844 297.34375 C 311.460938 290.234375 307 285.648438 300.089844 285.648438 Z M 321.851562 297.34375 Z M 321.851562 297.34375 " fill-opacity="1" fill-rule="nonzero"/><path fill="#b89de6" d="M 484.777344 492.738281 L 457.78125 492.738281 C 457.4375 492.738281 457.101562 492.703125 456.765625 492.636719 C 456.433594 492.570312 456.109375 492.472656 455.792969 492.339844 C 455.476562 492.210938 455.179688 492.050781 454.894531 491.859375 C 454.609375 491.671875 454.347656 491.457031 454.105469 491.214844 C 453.867188 490.972656 453.652344 490.710938 453.460938 490.429688 C 453.273438 490.144531 453.113281 489.84375 452.980469 489.53125 C 452.851562 489.214844 452.753906 488.890625 452.6875 488.554688 C 452.621094 488.222656 452.585938 487.882812 452.585938 487.542969 L 452.585938 401.945312 C 452.585938 390.132812 450.261719 380.449219 445.851562 373.949219 C 440.976562 366.761719 433.640625 363.269531 423.421875 363.269531 C 406.90625 363.269531 395.832031 375.289062 392.1875 387.207031 C 392.160156 387.292969 392.128906 387.378906 392.101562 387.460938 C 391.128906 390.128906 390.570312 394.066406 390.570312 398.261719 L 390.570312 487.542969 C 390.570312 487.882812 390.539062 488.222656 390.472656 488.554688 C 390.40625 488.890625 390.308594 489.214844 390.175781 489.53125 C 390.046875 489.84375 389.886719 490.144531 389.695312 490.429688 C 389.507812 490.710938 389.292969 490.972656 389.050781 491.214844 C 388.808594 491.457031 388.546875 491.671875 388.261719 491.859375 C 387.980469 492.050781 387.679688 492.210938 387.367188 492.339844 C 387.050781 492.472656 386.726562 492.570312 386.390625 492.636719 C 386.054688 492.703125 385.71875 492.738281 385.378906 492.738281 L 358.398438 492.738281 C 358.058594 492.738281 357.71875 492.703125 357.382812 492.636719 C 357.050781 492.570312 356.726562 492.472656 356.410156 492.339844 C 356.09375 492.210938 355.796875 492.050781 355.511719 491.859375 C 355.230469 491.671875 354.964844 491.457031 354.726562 491.214844 C 354.484375 490.972656 354.269531 490.710938 354.078125 490.429688 C 353.890625 490.144531 353.730469 489.84375 353.597656 489.53125 C 353.46875 489.214844 353.371094 488.890625 353.304688 488.554688 C 353.238281 488.222656 353.203125 487.882812 353.203125 487.542969 L 353.203125 379.242188 C 353.203125 362.679688 352.832031 350.773438 351.992188 339.441406 C 351.964844 339.082031 351.976562 338.726562 352.023438 338.375 C 352.070312 338.019531 352.15625 337.675781 352.273438 337.335938 C 352.394531 337 352.546875 336.679688 352.730469 336.375 C 352.917969 336.070312 353.128906 335.785156 353.375 335.523438 C 353.617188 335.261719 353.886719 335.03125 354.179688 334.824219 C 354.46875 334.617188 354.78125 334.445312 355.109375 334.300781 C 355.433594 334.160156 355.773438 334.054688 356.125 333.980469 C 356.472656 333.910156 356.828125 333.875 357.183594 333.875 L 381.113281 333.875 C 381.441406 333.875 381.765625 333.902344 382.089844 333.964844 C 382.410156 334.027344 382.726562 334.117188 383.03125 334.234375 C 383.335938 334.355469 383.625 334.503906 383.902344 334.679688 C 384.179688 334.855469 384.4375 335.054688 384.675781 335.277344 C 384.917969 335.503906 385.132812 335.746094 385.324219 336.011719 C 385.519531 336.277344 385.683594 336.558594 385.824219 336.855469 C 385.964844 337.152344 386.074219 337.457031 386.15625 337.773438 C 386.238281 338.09375 386.289062 338.414062 386.308594 338.742188 L 386.984375 349.566406 C 390.445312 345.867188 394.316406 342.664062 398.605469 339.960938 C 408.441406 333.769531 420.121094 330.5 432.367188 330.5 C 440.5625 330.5 456.320312 332.292969 469.765625 344.320312 C 483.210938 356.351562 490.019531 374.703125 490.019531 398.894531 L 490.019531 487.566406 C 490.019531 487.90625 489.984375 488.246094 489.917969 488.582031 C 489.847656 488.917969 489.746094 489.242188 489.613281 489.558594 C 489.480469 489.871094 489.320312 490.171875 489.128906 490.453125 C 488.9375 490.738281 488.71875 491 488.476562 491.242188 C 488.230469 491.480469 487.964844 491.695312 487.679688 491.882812 C 487.394531 492.070312 487.09375 492.230469 486.777344 492.355469 C 486.457031 492.484375 486.132812 492.582031 485.796875 492.644531 C 485.460938 492.710938 485.121094 492.738281 484.777344 492.738281 Z M 462.972656 482.347656 L 479.585938 482.347656 L 479.585938 398.871094 C 479.585938 377.765625 473.9375 362.011719 462.792969 352.042969 C 451.515625 341.953125 437.722656 340.863281 432.316406 340.863281 C 409.1875 340.863281 394.175781 353.847656 387.832031 365.992188 C 387.613281 366.414062 387.34375 366.796875 387.019531 367.144531 C 386.691406 367.488281 386.328125 367.785156 385.921875 368.03125 C 385.515625 368.277344 385.085938 368.464844 384.628906 368.59375 C 384.171875 368.722656 383.703125 368.785156 383.230469 368.785156 L 382.617188 368.785156 C 382.289062 368.785156 381.964844 368.757812 381.640625 368.695312 C 381.320312 368.636719 381.007812 368.542969 380.703125 368.425781 C 380.398438 368.304688 380.105469 368.15625 379.828125 367.980469 C 379.550781 367.804688 379.292969 367.605469 379.054688 367.378906 C 378.816406 367.15625 378.597656 366.910156 378.40625 366.648438 C 378.214844 366.382812 378.046875 366.101562 377.90625 365.804688 C 377.769531 365.507812 377.65625 365.199219 377.574219 364.882812 C 377.496094 364.566406 377.445312 364.242188 377.421875 363.914062 L 376.191406 344.25 L 362.710938 344.25 C 363.308594 354.238281 363.59375 365.078125 363.59375 379.242188 L 363.59375 482.347656 L 380.203125 482.347656 L 380.203125 398.261719 C 380.203125 392.886719 380.945312 387.84375 382.308594 384.042969 C 383.648438 379.746094 385.585938 375.742188 388.113281 372.019531 C 390.640625 368.296875 393.652344 365.023438 397.148438 362.195312 C 398.996094 360.695312 400.953125 359.363281 403.027344 358.199219 C 405.097656 357.039062 407.253906 356.058594 409.496094 355.265625 C 411.738281 354.472656 414.027344 353.875 416.371094 353.476562 C 418.714844 353.074219 421.074219 352.878906 423.449219 352.882812 C 436.988281 352.882812 447.71875 358.148438 454.476562 368.121094 C 460.136719 376.464844 463.011719 387.847656 463.011719 401.945312 Z M 462.972656 482.347656 " fill-opacity="1" fill-rule="nonzero"/></svg>