<svg xmlns="http://www.w3.org/2000/svg" xmlns:xlink="http://www.w3.org/1999/xlink" width="1024" zoomAndPan="magnify" viewBox="0 0 768 767.999994" height="1024" preserveAspectRatio="xMidYMid meet" version="1.0"><defs><clipPath id="11fb0d4c45"><path d="M 231 231.550781 L 537 231.550781 L 537 536.800781 L 231 536.800781 Z M 231 231.550781 " clip-rule="nonzero"/></clipPath></defs><g clip-path="url(#11fb0d4c45)"><path fill="#b89de6" d="M 383.996094 536.4375 C 381.710938 536.4375 379.316406 535.675781 377.355469 534.152344 L 235.800781 425.265625 C 232.207031 422.433594 230.683594 417.75 232.097656 413.394531 L 286.542969 239.175781 C 287.847656 234.820312 291.769531 231.769531 296.34375 231.550781 C 300.917969 231.335938 305.054688 233.839844 306.90625 237.976562 L 347.628906 329.550781 L 420.585938 329.550781 L 461.308594 237.976562 C 463.160156 233.839844 467.40625 231.335938 471.871094 231.550781 C 476.445312 231.769531 480.253906 234.820312 481.671875 239.175781 L 536.113281 413.394531 C 537.421875 417.75 536.003906 422.433594 532.414062 425.265625 L 390.859375 534.152344 C 388.898438 535.675781 386.503906 536.4375 384.214844 536.4375 Z M 255.074219 412.632812 L 383.996094 511.828125 L 512.921875 412.632812 L 469.367188 273.257812 L 437.570312 344.90625 C 435.828125 348.824219 431.910156 351.328125 427.660156 351.328125 L 340.441406 351.328125 C 336.085938 351.328125 332.277344 348.824219 330.535156 344.90625 L 298.738281 273.257812 L 255.183594 412.632812 Z M 255.074219 412.632812 " fill-opacity="1" fill-rule="nonzero"/></g></svg>